<?xml version="1.0" encoding="utf-8"?>
<!-- Generator: Adobe Illustrator 24.1.1, SVG Export Plug-In . SVG Version: 6.00 Build 0)  -->
<svg version="1.1" id="Слой_1" xmlns="http://www.w3.org/2000/svg" xmlns:xlink="http://www.w3.org/1999/xlink" x="0px" y="0px"
	 viewBox="0 0 1024 1024" style="enable-background:new 0 0 1024 1024;" xml:space="preserve">
<style type="text/css">
	.st0{fill:none;}
	.st1{enable-background:new    ;}
</style>
<path d="M896,43.1H128c-46.9,0-85.3,38.4-85.3,85.3v768.3c0,46.9,38.4,85.3,85.3,85.3h768c46.9,0,85.3-38.4,85.3-85.3V128.4
	C981.3,81.5,942.9,43.1,896,43.1z M853.3,897.2H170.7c-23.5,0-42.7-19.2-42.7-42.7V170.7c0-23.5,19.2-42.7,42.7-42.7h682.7
	c23.5,0,42.7,19.2,42.7,42.7v683.9C896,878,876.8,897.2,853.3,897.2L853.3,897.2z"/>
<polygon class="st0" points="-3,364 1021,364 1024,1024 0,1024 "/>
<g class="st1">
	<path d="M296.2,339.2v319.1c0,7.2-2.3,13.2-6.8,18.1c-6.5,7-15.5,10.5-26.9,10.5c-13.2,0-22.8-4.5-28.8-13.4
		c-2.9-4.4-4.4-9.4-4.4-15.1V339.2c0-10.3,4.4-17.9,13.2-22.9c6.2-3.6,12.9-5.4,20-5.4c8.5,0,15.9,2.2,22.5,6.6
		C292.4,322.7,296.2,329.9,296.2,339.2z"/>
	<path d="M512.1,417c5.2,0,10.2,1.1,15,3.4c13.6,6.6,20.4,17.3,20.4,32.2c0,5.7-1.4,11.2-4.2,16.6c-6.6,12.6-17.1,18.9-31.6,18.9
		c-7.7,0-14.7-2.3-20.9-7c-9.5-7.2-14.3-16.8-14.3-28.8c0-9.9,3.6-18.3,10.9-25.3C494.3,420.3,502.5,417,512.1,417z M512.1,554.3
		c5.2,0,10.2,1.1,15,3.4c13.6,6.5,20.4,17.2,20.4,32.2c0,5.7-1.4,11.2-4.2,16.6c-6.6,12.6-17.1,18.9-31.6,18.9
		c-7.7,0-14.7-2.3-20.9-7c-9.5-7.2-14.3-16.8-14.3-28.8c0-9.9,3.6-18.3,10.9-25.3C494.3,557.6,502.5,554.3,512.1,554.3z"/>
	<path d="M794.5,339.2v319.1c0,7.2-2.3,13.2-6.8,18.1c-6.5,7-15.5,10.5-26.9,10.5c-13.2,0-22.8-4.5-28.8-13.4
		c-2.9-4.4-4.4-9.4-4.4-15.1V339.2c0-10.3,4.4-17.9,13.2-22.9c6.2-3.6,12.9-5.4,20-5.4c8.5,0,15.9,2.2,22.5,6.6
		C790.8,322.7,794.5,329.9,794.5,339.2z"/>
</g>
</svg>
