<?xml version="1.0" encoding="utf-8"?>
<!-- Generator: Adobe Illustrator 24.1.1, SVG Export Plug-In . SVG Version: 6.00 Build 0)  -->
<svg version="1.1" id="Слой_1" xmlns="http://www.w3.org/2000/svg" xmlns:xlink="http://www.w3.org/1999/xlink" x="0px" y="0px"
	 viewBox="0 0 1024 1024" style="enable-background:new 0 0 1024 1024;" xml:space="preserve">
<path d="M856.5,891.5v-768c0-46.9-38.4-85.3-85.3-85.3H252.8c-46.9,0-85.3,38.4-85.3,85.3v768c0,46.9,38.4,85.3,85.3,85.3h518.3
	C818,976.8,856.5,938.5,856.5,891.5z M252.3,848.8V166.3c0-23.5-0.8-42.7,22.7-42.7h463.8c23.5,0,32.7,19.2,32.7,42.7V849
	c0,23.5-9.2,42.7-32.7,42.7H275C251.5,891.5,252.3,872.3,252.3,848.8L252.3,848.8z"/>
<g>
	<path d="M544.4,708.4c15.2,1.7,27.9,5.4,37.9,11.2c13.8,8.1,23.7,19.3,29.5,33.5c3.2,7.9,4.8,16.3,4.8,25.1
		c0,29.2-12.1,51.9-36.2,68c-19.6,13.1-43.8,19.6-72.7,19.6c-38.1,0-67.5-10.6-88.4-31.8c-9.5-9.5-14.3-18.6-14.3-27.2
		c0-6.1,2.1-11.1,6.3-15c4.8-4.6,10.5-6.9,16.9-6.9c5.7,0,10.5,1.8,14.5,5.5c0.9,0.8,2.8,3,5.7,6.7c13.8,16.8,33.5,25.1,59,25.1
		c14.6,0,26.7-3,36.4-9.1c13.1-8.1,19.6-19.9,19.6-35.4c0-13.2-3.9-23.9-11.8-32.2c-6.5-6.7-15.1-11.1-25.9-13.1
		c-7.6-1.4-19.9-2.2-36.9-2.3c-16.8,0-25.1-7.1-25.1-21.3c0-13.6,8.7-20.4,26.1-20.4c15.5,0,28.7-2.4,39.6-7.2
		c15.7-6.9,23.6-18.2,23.6-34.1c0-11.3-4.5-20.2-13.5-26.9c-8.6-6.3-19.8-9.5-33.5-9.5c-22.1,0-39,8.2-50.8,24.6
		c-4.4,6.2-10.3,9.3-17.5,9.3c-5.8,0-11-1.9-15.4-5.7c-4.8-4.1-7.2-9.1-7.2-15c0-6.5,3.2-13.5,9.5-20.9c7.2-8.4,16.4-15.5,27.4-21.3
		c16.9-8.9,35.4-13.3,55.6-13.3c22.9,0,42.7,4.9,59.4,14.7c25,14.6,37.5,36.2,37.5,64.9c0,18.4-7.2,33.4-21.7,44.9
		c-9.8,7.7-21.4,12.8-34.8,15C547.1,707.9,546,708.1,544.4,708.4z"/>
	<path d="M412.3,509.5c0-5.2,1.1-10.2,3.4-15c6.6-13.6,17.3-20.4,32.2-20.4c5.7,0,11.2,1.4,16.6,4.2c12.6,6.6,18.9,17.1,18.9,31.6
		c0,7.7-2.3,14.7-7,20.9c-7.2,9.5-16.8,14.3-28.8,14.3c-9.9,0-18.3-3.6-25.3-10.9C415.6,527.3,412.3,519,412.3,509.5z M549.6,509.5
		c0-5.2,1.1-10.2,3.4-15c6.5-13.6,17.2-20.4,32.2-20.4c5.7,0,11.2,1.4,16.6,4.2c12.6,6.6,18.9,17.1,18.9,31.6c0,7.7-2.3,14.7-7,20.9
		c-7.2,9.5-16.8,14.3-28.8,14.3c-9.9,0-18.3-3.6-25.3-10.9C552.9,527.3,549.6,519,549.6,509.5z"/>
	<path d="M468.5,393h131.4c5.3,0,9.7,1.8,13.1,5.3c4.6,4.7,6.9,10.8,6.9,18.3c0,9.8-3.4,16.8-10.1,20.9c-2.8,1.8-6.1,2.7-9.9,2.7
		H437.6c-20.6,0-30.8-9.1-30.8-27.2c0-12.1,5.6-24.7,16.9-37.9c14.3-17,41.8-42.1,82.5-75.2c18.5-15.2,31.5-27.3,39-36.2
		c9.1-11,13.7-21.8,13.7-32.2c0-12.9-5.5-23-16.6-30.3c-8.5-5.6-18.5-8.4-29.9-8.4c-22.6,0-39.6,10.3-51,31
		c-5.2,9.4-12.6,14.1-22.3,14.1c-4.6,0-9-1.2-13.1-3.6c-7.5-4.3-11.2-10.7-11.2-19c0-8.8,3.6-17.8,10.7-27.2
		c7.4-9.9,17.2-18.2,29.5-24.8c17.6-9.6,37-14.5,58.1-14.5c23.2,0,43.6,5.5,61.1,16.6c25.5,16,38.3,38.2,38.3,66.7
		c0,19.9-7,37.8-20.9,53.7c-8.4,9.4-25.4,24-51,43.8C510.1,353,486.1,374.1,468.5,393z"/>
</g>
</svg>
