<?xml version="1.0" encoding="utf-8"?>
<!-- Generator: Adobe Illustrator 24.1.1, SVG Export Plug-In . SVG Version: 6.00 Build 0)  -->
<svg version="1.1" id="Слой_1" xmlns="http://www.w3.org/2000/svg" xmlns:xlink="http://www.w3.org/1999/xlink" x="0px" y="0px"
	 viewBox="0 0 1024 1024" style="enable-background:new 0 0 1024 1024;" xml:space="preserve">
<path d="M826.5,891.6v-768c0-46.9-38.4-85.3-85.3-85.3H282.8c-46.9,0-85.3,38.4-85.3,85.3v768c0,46.9,38.4,85.3,85.3,85.3h458.3
	C788.1,976.9,826.5,938.5,826.5,891.6z M282.4,848.9V166.3c0-23.5-0.8-42.7,22.7-42.7H709c23.5,0,32.7,19.2,32.7,42.7V849
	c0,23.5-9.2,42.7-32.7,42.7H305.1C281.6,891.6,282.4,872.4,282.4,848.9L282.4,848.9z"/>
<g>
	<path d="M532.9,710.4c16-22.2,38.9-33.3,68.7-33.3c22,0,41.3,6.4,57.9,19.2c23.2,17.9,34.8,42.3,34.8,73.3
		c0,24.9-7.2,46.3-21.7,64.2c-19.3,23.7-45.8,31.6-79.4,31.6c-33.6,0-60.7-7.3-81.1-29.9c-20.2-22.5-30.3-52-30.3-88.5
		c0-33.9,10.4-66.8,31.2-98.8c22.9-35.3,52.2-61.4,88.2-78.5c5.8-2.8,11.4-4.2,16.6-4.2c8.3,0,14.7,3.3,19.2,9.9
		c3,4.3,4.6,8.8,4.6,13.5c0,9.4-5.9,17.1-17.7,23c-30.8,15.5-55.7,37.5-74.6,66.1c-6.3,9.5-11.3,19-14.9,28.4
		C534,707.3,533.5,708.6,532.9,710.4z M591.3,716.5c-12.8,0-24.4,4.1-34.7,12.4c-12.9,10.4-19.4,24-19.4,40.8
		c0,15.6,4.4,28.5,13.3,38.7c10,11.4,23.7,17.1,41.1,17.1c15.7,0,28.4-5.7,38.1-17.1c8.5-10,12.8-23,12.8-38.8
		c0-20.1-6.9-34.8-20.8-44.4C613.4,719.3,603.3,716.5,591.3,716.5z"/>
	<path d="M616.8,510.5c0,5.2-1.1,10.2-3.4,15c-6.6,13.6-17.3,20.4-32.2,20.4c-5.7,0-11.2-1.4-16.6-4.2
		c-12.6-6.6-18.9-17.1-18.9-31.6c0-7.7,2.3-14.7,7-20.9c7.2-9.5,16.8-14.3,28.8-14.3c9.9,0,18.3,3.6,25.3,10.9
		C613.5,492.7,616.8,501,616.8,510.5z M479.5,510.5c0,5.2-1.1,10.2-3.4,15c-6.5,13.6-17.2,20.4-32.2,20.4c-5.7,0-11.2-1.4-16.6-4.2
		c-12.6-6.6-18.9-17.1-18.9-31.6c0-7.7,2.3-14.7,7-20.9c7.2-9.5,16.8-14.3,28.8-14.3c9.9,0,18.3,3.6,25.3,10.9
		C476.2,492.7,479.5,501,479.5,510.5z"/>
	<path d="M579.1,306.4c-16,22.2-38.9,33.3-68.7,33.3c-22,0-41.3-6.4-57.9-19.2c-23.2-17.9-34.8-42.3-34.8-73.3
		c0-24.9,7.2-46.3,21.7-64.2c19.3-23.7,45.8-35.6,79.4-35.6s60.7,11.3,81.1,33.9c20.2,22.5,30.3,52,30.3,88.5
		c0,33.9-10.4,66.8-31.2,98.8c-22.9,35.3-52.2,61.4-88.2,78.5c-5.8,2.8-11.4,4.2-16.6,4.2c-8.3,0-14.7-3.3-19.2-9.9
		c-3-4.3-4.6-8.8-4.6-13.5c0-9.4,5.9-17.1,17.7-23c30.8-15.5,55.7-37.5,74.6-66.1c6.3-9.5,11.3-19,14.9-28.4
		C578,309.5,578.5,308.2,579.1,306.4z M520.6,300.3c12.8,0,24.4-4.1,34.7-12.4c12.9-10.4,19.4-24,19.4-40.8
		c0-15.6-4.4-28.5-13.3-38.7c-10-11.4-23.7-17.1-41.1-17.1c-15.7,0-28.4,5.7-38.1,17.1c-8.5,10-12.8,23-12.8,38.8
		c0,20.1,6.9,34.8,20.8,44.4C498.5,297.5,508.7,300.3,520.6,300.3z"/>
</g>
<g>
	<path d="M427.5,595.5v248.9c0,5.6-1.8,10.3-5.3,14.1c-5.1,5.5-12.1,4.2-20.9,4.2c-10.3,0-17.8,0.5-22.5-6.5
		c-2.3-3.4-3.4-7.4-3.4-11.8V595.5c0-8,3.4-14,10.3-17.9c4.8-2.8,10-4.2,15.6-4.2c6.6,0,12.4,1.7,17.5,5.1
		C424.6,582.7,427.5,588.3,427.5,595.5z"/>
</g>
</svg>
