<?xml version="1.0" encoding="utf-8"?>
<!-- Generator: Adobe Illustrator 24.1.1, SVG Export Plug-In . SVG Version: 6.00 Build 0)  -->
<svg version="1.1" id="Слой_1" xmlns="http://www.w3.org/2000/svg" xmlns:xlink="http://www.w3.org/1999/xlink" x="0px" y="0px"
	 viewBox="0 0 1024 1024" style="enable-background:new 0 0 1024 1024;" xml:space="preserve">
<path d="M896,193.1H128c-46.9,0-85.3,38.4-85.3,85.3v458.3c0,46.9,38.4,85.3,85.3,85.3h768c46.9,0,85.3-38.4,85.3-85.3V278.4
	C981.3,231.5,942.9,193.1,896,193.1z M853.3,737.2H170.7c-23.5,0-42.7,0.8-42.7-22.7V310.7c0-23.5,19.2-32.7,42.7-32.7h682.7
	c23.5,0,42.7,9.2,42.7,32.7v403.9C896,738,876.8,737.2,853.3,737.2L853.3,737.2z"/>
<g>
	<path d="M323.5,497.9c16-22.2,38.9-33.3,68.7-33.3c22,0,41.3,6.4,57.9,19.2c23.2,17.9,34.8,42.3,34.8,73.3
		c0,24.9-7.2,46.3-21.7,64.2c-19.3,23.7-45.8,35.6-79.4,35.6s-60.7-11.3-81.1-33.9c-20.2-22.5-30.3-52-30.3-88.5
		c0-33.9,10.4-66.8,31.2-98.8c22.9-35.3,52.2-61.4,88.2-78.5c5.8-2.8,11.4-4.2,16.6-4.2c8.3,0,14.7,3.3,19.2,9.9
		c3,4.3,4.6,8.8,4.6,13.5c0,9.4-5.9,17.1-17.7,23c-30.8,15.5-55.7,37.5-74.6,66.1c-6.3,9.5-11.3,19-14.9,28.4
		C324.6,494.8,324.1,496.1,323.5,497.9z M382,504c-12.8,0-24.4,4.1-34.7,12.4c-12.9,10.4-19.4,24-19.4,40.8
		c0,15.6,4.4,28.5,13.3,38.7c10,11.4,23.7,17.1,41.1,17.1c15.7,0,28.4-5.7,38.1-17.1c8.5-10,12.8-23,12.8-38.8
		c0-20.1-6.9-34.8-20.8-44.4C404,506.9,393.9,504,382,504z"/>
	<path d="M568.2,409.2c5.2,0,10.2,1.1,15,3.4c13.6,6.6,20.4,17.3,20.4,32.2c0,5.7-1.4,11.2-4.2,16.6c-6.6,12.6-17.1,18.9-31.6,18.9
		c-7.7,0-14.7-2.3-20.9-7c-9.5-7.2-14.3-16.8-14.3-28.8c0-9.9,3.6-18.3,10.9-25.3C550.4,412.5,558.7,409.2,568.2,409.2z
		 M568.2,546.5c5.2,0,10.2,1.1,15,3.4c13.6,6.5,20.4,17.2,20.4,32.2c0,5.7-1.4,11.2-4.2,16.6c-6.6,12.6-17.1,18.9-31.6,18.9
		c-7.7,0-14.7-2.3-20.9-7c-9.5-7.2-14.3-16.8-14.3-28.8c0-9.9,3.6-18.3,10.9-25.3C550.4,549.8,558.7,546.5,568.2,546.5z"/>
	<path d="M814.4,512c-16,22.2-38.9,33.3-68.7,33.3c-22,0-41.3-6.4-57.9-19.2c-23.2-17.9-34.8-42.3-34.8-73.3
		c0-24.9,7.2-46.3,21.7-64.2c19.3-23.7,45.8-35.6,79.4-35.6c33.6,0,60.7,11.3,81.1,33.9c20.2,22.5,30.3,52,30.3,88.5
		c0,33.9-10.4,66.8-31.2,98.8c-22.9,35.3-52.2,61.4-88.2,78.5c-5.8,2.8-11.4,4.2-16.6,4.2c-8.3,0-14.7-3.3-19.2-9.9
		c-3-4.3-4.6-8.8-4.6-13.5c0-9.4,5.9-17.1,17.7-23c30.8-15.5,55.7-37.5,74.6-66.1c6.3-9.5,11.3-19,14.9-28.4
		C813.3,515.1,813.8,513.8,814.4,512z M755.9,505.9c12.8,0,24.4-4.1,34.7-12.4c12.9-10.4,19.4-24,19.4-40.8
		c0-15.6-4.4-28.5-13.3-38.7c-10-11.4-23.7-17.1-41.1-17.1c-15.7,0-28.4,5.7-38.1,17.1c-8.5,10-12.8,23-12.8,38.8
		c0,20.1,6.9,34.8,20.8,44.4C733.9,503.1,744,505.9,755.9,505.9z"/>
</g>
<g>
	<path d="M218.1,383.1V632c0,5.6-1.8,10.3-5.3,14.1c-5.1,5.5-12.1,8.2-20.9,8.2c-10.3,0-17.8-3.5-22.5-10.5
		c-2.3-3.4-3.4-7.4-3.4-11.8V383.1c0-8,3.4-14,10.3-17.9c4.8-2.8,10-4.2,15.6-4.2c6.6,0,12.4,1.7,17.5,5.1
		C215.2,370.2,218.1,375.9,218.1,383.1z"/>
</g>
</svg>
