<?xml version="1.0" encoding="utf-8"?>
<!-- Generator: Adobe Illustrator 19.0.0, SVG Export Plug-In . SVG Version: 6.00 Build 0)  -->
<svg version="1.1" id="Layer_1" xmlns="http://www.w3.org/2000/svg" xmlns:xlink="http://www.w3.org/1999/xlink" x="0px" y="0px"
	 viewBox="0 0 600 600" style="enable-background:new 0 0 600 600;" xml:space="preserve">
	<path id="XMLID_7_" d="M466.7,228.6c-10.5,0-19,8.5-19,19c0,3.7,1.1,7.2,2.9,10.1c-10.4,8.1-21.5,14.9-34.5,18.6
	c-10.3,3-18.7-0.1-22-9.4c-3.7-10.1-5.9-20.7-3.6-31.2c9.6-0.9,17.1-9,17.1-18.9c0-10.5-8.5-19-19-19c-10.5,0-19,8.5-19,19
	c0,5.8,2.6,11,6.7,14.5c-6.7,10.6-17.2,20.5-25.8,24.3c-9.1,4-15.4,3.4-21.7-3.8c-4.3-4.9-8.1-10.6-10.4-16.5
	c-5.5-14.2-10.2-28.8-15-43c7.1-2.8,12.1-9.6,12.1-17.7c0-10.5-8.5-19-19-19s-19,8.5-19,19c0,8.3,5.4,15.4,12.9,18
	c0.1,0.6,0.1,1.2,0,1.9c-2.1,13-4.3,26-9.8,38.2c-3.4,7.5-7.3,14.9-12.1,21.6c-4.7,6.5-12.5,8-20,4.6c-11.1-5.1-20.7-12-27.3-22
	c-0.8-1.2-1.5-2.4-1.9-3.7c3.4-3.4,5.5-8.2,5.5-13.4c0-10.5-8.5-19-19-19s-19,8.5-19,19c0,10.5,8.5,19,19,19c0.4,0,0.8,0,1.2-0.1
	c0.9,9.9,1.2,19.6-1.7,29.2c-2.5,8.2-8.5,12.9-19.8,12.7c-3.3-0.1-6.9-1.1-9.8-2.5c-8.8-4.3-17.4-9-26.1-13.6
	c-0.4-0.2-0.8-0.5-1.2-0.8c1.4-2.6,2.2-5.7,2.2-8.9c0-10.5-8.5-19-19-19s-19,8.5-19,19s8.5,19,19,19c2.5,0,4.9-0.5,7.1-1.4
	c9.2,19.9,18.4,39.4,27.4,59c9.5,20.8,18.8,41.8,28.4,63.1c35.7-8,70.9-11.4,106.6-11.6c35.9-0.1,71.5,2.8,107.2,8.6
	c16.3-43,34.2-84.9,54.4-125.3c1.3,0.3,2.7,0.5,4.1,0.5c10.5,0,19-8.5,19-19S477.2,228.6,466.7,228.6z "/>
</svg>