<svg id="Слой_1" data-name="Слой 1" xmlns="http://www.w3.org/2000/svg" viewBox="0 0 580.1 572.7">
    <defs>
        <style>.cls-1{fill:#fefcfc;}.cls-2{fill:#fc373b;}</style>
    </defs>
    <!-- <path class="cls-1" d="M412.39,146.92a57.58,57.58,0,0,0,3.55-18.8,102.57,102.57,0,0,0-18.07-63.87c-4.22-6.24-4.42-22,1.69-29.32,10.62-12.61,24.29-12.92,33.07-8.37,13.12,6.8,26.78,11.77,41.43,13.72a108.47,108.47,0,0,0,53.39-5.87c8.44-3.19,16.28-7.59,24.48-11.24,18.42-8.23,38.4,4.43,37.89,24.45-.16,6.09-2.56,11.63-5.8,16.78-3.88,6.19-7.95,12.27-11.54,18.62-8.3,14.66-8.21,30.35-5,46.28s9.19,30.82,14.89,45.9c3.92,10.37,1.76,20.21-5.86,28.13-6.5,6.74-15,9-24.29,7.21-9.57-1.87-17.78-7.33-26.76-10.8-18.71-7.23-37.54-9.53-56.84-2.53-.78.29-1.56.58-2.32.92a11,11,0,0,0-1.48,1.22c4,.63,7.36,1.28,10.78,1.67,19.92,2.29,39.29,6.66,57.17,16,17.55,9.2,31,22.31,37.13,41.7,7,22.13,2.58,42.34-11.13,60.66-2.35,3.14-3,4.94,0,8.29,11.49,12.77,21.73,26.47,26.9,43.18,7.34,23.72,6,46.6-7.81,67.86a62.83,62.83,0,0,1-21.09,20.12c-12.87,7.52-26.59,12.88-41.66,14.12-4.91.41-8.15,1.93-10.72,7.3-9.7,20.2-25.1,35.23-44.88,45.87C438,537.72,415.1,544.33,390.89,547c-12,1.34-24,2.75-36.15,2.85a7.07,7.07,0,0,0-5,1.72c-20.73,18.16-45.07,28.35-72.14,32.31-32.76,4.8-64.81,1.57-96.23-8.71A243.43,243.43,0,0,1,98,528.42,248.32,248.32,0,0,1,32.17,440,250.86,250.86,0,0,1,13,373.18,282.61,282.61,0,0,1,10.19,322c1.51-39.72,11.19-77,36.49-108.52a183.19,183.19,0,0,1,32.71-32,10.44,10.44,0,0,1,4.93-2.3c6-.49,6.9-4.55,7.83-9.41C99.09,133.66,108,98.06,126,65.52c9.21-16.65,20.84-31.27,38.65-39.63,11.25-5.29,23-6.48,35.44-5.14,16,1.72,30.66,7.05,44.64,14.68,2.24,1.22,4.12,2.25,6.67-.07,14-12.66,30.37-19.4,49.26-21.48,23-2.53,42.69,4.39,60.05,18.61C377.46,46.24,388.85,64,396.86,84.14S409.48,125.29,412.39,146.92ZM185.53,457.82a15.2,15.2,0,0,0,1.59,1.79c16,12.31,32.62,23.78,51.6,31.05,24,9.2,48.66,16.46,74.56,11.14,43.76-9,73.57-34.53,86.08-78.07,5.73-20,2.67-40.33-1-60.41s-11-38.69-18.48-57.39c-3.9-9.72-3.79-9.7,6.42-11.15,2.38-.34,4.23-.85,5.92,1.81,17.58,27.72,34.16,55.94,46.1,86.69,7.66,19.73,9,39.37,1.36,59.38-10.81,28.2-31.43,46.76-58.58,58.13C340.05,518,297,521.11,253.61,513.73,186.73,502.36,137,466.13,105.92,405.59c-26.6-51.87-29.83-107-20.4-163.58,2.09-12.58,5.23-24.94,8.67-38.12C72.35,221.13,56,241.29,47,266.91,33.76,305,33.28,344,41.75,382.72,58.29,458.4,102.16,512.86,173.4,544c36.57,16,74.86,21.17,114.18,11,19.5-5,37.1-13.82,50.61-29.36,1.56-1.79,3.26-2,5.3-2,15.17,0,30.3-.59,45.34-2.72,22.77-3.23,44.77-8.91,64.2-21.82,17-11.28,29.34-26.07,32.52-47,.55-3.59,2.69-3.09,4.95-3.14,14.58-.28,28.88-2.13,42.52-7.59,23.4-9.37,34.94-30.52,29.21-55.17-5.89-25.3-22.14-43.19-43.52-56.71-4.31-2.73-3.47-3.7-.29-6.19a91.25,91.25,0,0,0,21-22.53c11.81-18.48,8.8-38.58-7.91-52.81-10.68-9.09-23.5-13.66-36.84-17-24-5.93-48.43-6.65-73-6-3.56.09-5.24-1-6.67-4.26-5.35-12.05-12.35-22.95-24.14-29.73-3.06-1.76-3.94-3.75-3.9-7.09.31-23.58-2-46.89-8.1-69.72C373.81,95,366.07,77.13,353,61.87c-17.48-20.4-39.9-27-64.11-18.78-13.23,4.51-23.19,13.54-31.92,24-3,3.55-4.9,4.48-9.15,1.34-13.49-10-28.24-17.5-44.89-20.9-16-3.26-29.63.32-40.76,12.66A104.59,104.59,0,0,0,147.2,82c-11.58,22.15-18.49,45.93-24.15,70.12-9.72,41.58-15.29,83.79-18.47,126.32-.58,7.74.47,15.59.78,23.84,1-.67,1.47-.79,1.53-1,.41-1.61.74-3.24,1.12-4.86,4.71-19.83,11-39.08,21.2-56.85,20.94-36.41,52.14-55.16,94.42-54,29.35.8,56.45,10.27,82.58,23,2,1,2.65,2,2.29,4.22a60.81,60.81,0,0,0-.07,17.92c.39,2.84-.5,3.21-2.88,2.54-1.27-.36-2.61-.48-3.92-.73-27-5.21-54.22-7-81.36-1.32-54.53,11.41-90.09,44.67-109.47,96.21a10.11,10.11,0,0,0-.59,5.85c6.39,31,17.44,60,36.18,85.81.91,1.24,1.45,3,3.45,3.25a354.53,354.53,0,0,1,64.38-86.73c29.42-29.21,63-52.16,101.83-67.14,2.86-1.11,4.49-1.28,6.34,1.8A40.4,40.4,0,0,0,343,287.53c2.82,1.07,3.39,2.63,2.87,5.31a140.71,140.71,0,0,1-5.9,21.64C318.51,373.33,278.21,415,222.71,442.75A290.1,290.1,0,0,1,185.53,457.82ZM426,189c2.92-.69,4.8-2.27,6.82-3.56,20.16-12.83,41.88-20,66.09-18.63,17.28,1,33.17,6.55,48.69,13.64,2.93,1.34,5.89,2.6,9.14,4,.42-2.54-.64-3.94-1.24-5.4a256.91,256.91,0,0,1-12-35.41c-4.89-19.63-7-39.29-.66-59.07,3.3-10.28,9.07-19.2,14.87-28.14,1.64-2.53,3.64-5,4.58-9.11-46.58,25.82-93,27-140.72,3.49C450.05,96.57,447.91,142.15,426,189Z" transform="translate(-10 -13.37)"/> -->
    <path class="cls-2" d="M185.53,457.82a290.1,290.1,0,0,0,37.18-15.07C278.21,415,318.51,373.33,340,314.48a140.71,140.71,0,0,0,5.9-21.64c.52-2.68-.05-4.24-2.87-5.31a40.4,40.4,0,0,1-20.63-17.37c-1.85-3.08-3.48-2.91-6.34-1.8-38.84,15-72.41,37.93-101.83,67.14a354.53,354.53,0,0,0-64.38,86.73c-2-.29-2.54-2-3.45-3.25-18.74-25.78-29.79-54.81-36.18-85.81a10.11,10.11,0,0,1,.59-5.85c19.38-51.54,54.94-84.8,109.47-96.21,27.14-5.69,54.32-3.89,81.36,1.32,1.31.25,2.65.37,3.92.73,2.38.67,3.27.3,2.88-2.54a60.81,60.81,0,0,1,.07-17.92c.36-2.22-.3-3.25-2.29-4.22-26.13-12.71-53.23-22.18-82.58-23-42.28-1.16-73.48,17.59-94.42,54-10.22,17.77-16.49,37-21.2,56.85-.38,1.62-.71,3.25-1.12,4.86-.06.23-.5.35-1.53,1-.31-8.25-1.36-16.1-.78-23.84,3.18-42.53,8.75-84.74,18.47-126.32,5.66-24.19,12.57-48,24.15-70.12a104.59,104.59,0,0,1,15-21.74C173.3,47.87,187,44.29,202.93,47.55c16.65,3.4,31.4,10.93,44.89,20.9,4.25,3.14,6.2,2.21,9.15-1.34,8.73-10.48,18.69-19.51,31.92-24,24.21-8.25,46.63-1.62,64.11,18.78,13.07,15.26,20.81,33.17,25.93,52.34,6.1,22.83,8.41,46.14,8.1,69.72,0,3.34.84,5.33,3.9,7.09,11.79,6.78,18.79,17.68,24.14,29.73,1.43,3.21,3.11,4.35,6.67,4.26,24.53-.63,49,.09,73,6,13.34,3.3,26.16,7.87,36.84,17,16.71,14.23,19.72,34.33,7.91,52.81a91.25,91.25,0,0,1-21,22.53c-3.18,2.49-4,3.46.29,6.19,21.38,13.52,37.63,31.41,43.52,56.71C568,410.88,556.42,432,533,441.4c-13.64,5.46-27.94,7.31-42.52,7.59-2.26.05-4.4-.45-4.95,3.14C482.37,473,470,487.81,453,499.09c-19.43,12.91-41.43,18.59-64.2,21.82-15,2.13-30.17,2.68-45.34,2.72-2,0-3.74.17-5.3,2-13.51,15.54-31.11,24.32-50.61,29.36-39.32,10.18-77.61,5-114.18-11C102.16,512.86,58.29,458.4,41.75,382.72,33.28,344,33.76,305,47,266.91c8.94-25.62,25.31-45.78,47.15-63-3.44,13.18-6.58,25.54-8.67,38.12-9.43,56.55-6.2,111.71,20.4,163.58,31,60.54,80.81,96.77,147.69,108.14,43.39,7.38,86.44,4.26,127.51-12.94,27.15-11.37,47.77-29.93,58.58-58.13,7.68-20,6.3-39.65-1.36-59.38-11.94-30.75-28.52-59-46.1-86.69-1.69-2.66-3.54-2.15-5.92-1.81-10.21,1.45-10.32,1.43-6.42,11.15,7.51,18.7,14.86,37.46,18.48,57.39s6.71,40.43,1,60.41C386.85,467.27,357,492.8,313.28,501.8c-25.9,5.32-50.59-1.94-74.56-11.14-19-7.27-35.58-18.74-51.6-31.05A15.2,15.2,0,0,1,185.53,457.82Zm-31.44-304c25.46-27.23,57.66-32.06,92.47-31.74-12.5-20.59-23.79-40.59-42.32-55.06a34.35,34.35,0,0,0-7.34-4.19c-8.36-3.69-15.45-2.15-21.71,4.53-4.76,5.09-7.64,11.27-10,17.7-4.93,13.51-7.43,27.57-9.09,41.8A231.16,231.16,0,0,0,154.09,153.77Zm186.18-3.24a187.87,187.87,0,0,0-5.47-38c-3.93-16.2-8.55-32.21-17.74-46.39-5.33-8.2-9.51-8.86-17.05-2.77-9,7.24-15,16.87-21,26.48-1.59,2.53-.16,4.35,1.33,6.26,12.1,15.49,24.14,31,37.18,45.73,5.63,6.35,11.62,12.39,17.5,18.51,1,1.06,2.32,2.18,4,1.58,1.88-.69,1.19-2.52,1.25-3.91C340.34,155.53,340.27,153,340.27,150.53ZM458.84,344.59c5.68,17.15,10.78,33.14,16.3,49,3.11,8.95,6.62,17.81,12.61,25.37,2.74,3.45,5.84,6.74,10.48,7.05,9.32.63,18.31-.85,26.19-6.3,8.48-5.87,10.43-13,6.5-22.57a38,38,0,0,0-4.88-8.68C509,366.21,484.58,355.38,458.84,344.59ZM465,260c-4.82,0-9.28.15-14.11.17a29.8,29.8,0,0,0-3,.19c-11.1,1.05-11.75,2.12-7.89,12.85,7.7,21.37,36.91,39.44,59.38,36.71,11-1.34,17.76-9.18,19.43-22.57,1.57-12.62-1.7-18.09-13.6-22.54C492.35,260,478.5,259.68,465,260Z" transform="translate(-10 -13.37)"/>
    <path class="cls-2" d="M426,189c21.92-46.89,24.06-92.47-4.4-138.16,47.71,23.51,94.14,22.33,140.72-3.49-.94,4.15-2.94,6.58-4.58,9.11-5.8,8.94-11.57,17.86-14.87,28.14-6.36,19.78-4.23,39.44.66,59.07a256.91,256.91,0,0,0,12,35.41c.6,1.46,1.66,2.86,1.24,5.4-3.25-1.43-6.21-2.69-9.14-4-15.52-7.09-31.41-12.67-48.69-13.64-24.21-1.36-45.93,5.8-66.09,18.63C430.79,186.77,428.91,188.35,426,189Z" transform="translate(-10 -13.37)"/>
    <!-- <path class="cls-1" d="M154.09,153.77a231.16,231.16,0,0,1,2-27c1.66-14.23,4.16-28.29,9.09-41.8,2.35-6.43,5.23-12.61,10-17.7,6.26-6.68,13.35-8.22,21.71-4.53A34.35,34.35,0,0,1,204.24,67c18.53,14.47,29.82,34.47,42.32,55.06C211.75,121.71,179.55,126.54,154.09,153.77Z" transform="translate(-10 -13.37)"/>
    <path class="cls-1" d="M340.27,150.53c0,2.5.07,5,0,7.49-.06,1.39.63,3.22-1.25,3.91-1.64.6-2.94-.52-4-1.58-5.88-6.12-11.87-12.16-17.5-18.51-13-14.71-25.08-30.24-37.18-45.73-1.49-1.91-2.92-3.73-1.33-6.26,6-9.61,12-19.24,21-26.48,7.54-6.09,11.72-5.43,17.05,2.77,9.19,14.18,13.81,30.19,17.74,46.39A187.87,187.87,0,0,1,340.27,150.53Z" transform="translate(-10 -13.37)"/>
    <path class="cls-1" d="M458.84,344.59c25.74,10.79,50.17,21.62,67.2,43.86a38,38,0,0,1,4.88,8.68c3.93,9.58,2,16.7-6.5,22.57-7.88,5.45-16.87,6.93-26.19,6.3-4.64-.31-7.74-3.6-10.48-7.05-6-7.56-9.5-16.42-12.61-25.37C469.62,377.73,464.52,361.74,458.84,344.59Z" transform="translate(-10 -13.37)"/>
    <path class="cls-1" d="M465,260c13.5-.32,31,1,40.23,4.81,11.9,4.45,15.17,9.92,13.6,22.54-1.67,13.39-8.42,21.23-19.43,22.57-22.47,2.73-51.68-15.34-59.38-36.71-3.86-10.73-3.21-11.8,7.89-12.85,1-.1,2-.16,3-.19C456,260,459,260,465,260Z" transform="translate(-10 -13.37)"/> -->
</svg>